<?xml version="1.0" encoding="utf-8"?>
<!-- Generator: Adobe Illustrator 24.0.0, SVG Export Plug-In . SVG Version: 6.00 Build 0)  -->
<svg version="1.1" id="Layer_1" xmlns="http://www.w3.org/2000/svg" xmlns:xlink="http://www.w3.org/1999/xlink" x="0px" y="0px"
	 viewBox="0 0 16 16" style="enable-background:new 0 0 16 16;" xml:space="preserve">
<style type="text/css">
	.st0{fill:#2C3077;}
	.st1{fill:#1DA0DB;}
</style>
<path class="st0" d="M6.8,6.8L6.8,6.8L6.8,6.8L6.8,6.8v-4H4.1v9.3h2.7 M10,2.8h2.7l-3.1,4l5.8,6.4h-2.8L7,7L6.8,6.8v5.2h0V2.8h0v4
	L10,2.8z"/>
<path class="st1" d="M11.9,7C13.8,7.5,15,8.5,15,9.6c0,1.8-3.2,3.2-7.2,3.2c-4,0-7.2-1.4-7.2-3.2c0-1,1.1-1.9,2.8-2.5
	c-0.6,0.5-1,1.1-1,1.7c0,1.6,2.4,3,5.3,3c2.9,0,5.3-1.3,5.3-3C13,8.1,12.6,7.5,11.9,7"/>
</svg>
