<?xml version="1.0" encoding="utf-8"?>
<!-- Generator: Adobe Illustrator 15.0.0, SVG Export Plug-In . SVG Version: 6.00 Build 0)  -->
<!DOCTYPE svg PUBLIC "-//W3C//DTD SVG 1.1//EN" "http://www.w3.org/Graphics/SVG/1.1/DTD/svg11.dtd">
<svg version="1.1" id="Layer_1" xmlns="http://www.w3.org/2000/svg" xmlns:xlink="http://www.w3.org/1999/xlink" x="0px" y="0px"
	 width="841.89px" height="90.929px" viewBox="0 217.944 841.89 90.929" enable-background="new 0 217.944 841.89 90.929"
	 xml:space="preserve">
<path fill="#FFFFFF" d="M218.174,298.117h-41.948v-16.684h41.948 M227.827,306.31v-33.07h-61.165v33.07H227.827z M238.522,263.557
	v-8.283H224.55c0.566-2.294,1.459-6.316,2.681-12.006s1.996-12.126,2.294-19.306H165.44v8.283h53.27
	c-0.298,3.962-0.894,8.193-1.728,12.781c-0.834,4.558-1.52,7.984-2.026,10.219h-58.99v8.283h82.556V263.557z"/>
<path fill="#FFFFFF" d="M292.746,226.227h-41.918v8.282h30.687c-0.447,4.082-3.009,9.474-7.746,16.178
	c-4.737,6.703-13.943,11.649-27.618,14.807l5.333,6.524c13.317-2.502,23.507-8.401,30.568-17.667
	C289.111,245.085,292.686,235.701,292.746,226.227 M308.506,290.907c0,3.039-1.996,5.452-5.958,7.239
	c-3.963,1.818-8.998,2.711-15.046,2.711c-6.078,0-11.083-0.893-15.045-2.711c-3.962-1.817-5.958-4.23-5.958-7.239
	c0-3.098,1.996-5.542,5.958-7.299c3.962-1.787,8.998-2.651,15.045-2.651c6.138,0,11.172,0.894,15.105,2.651
	C306.54,285.365,308.506,287.809,308.506,290.907z M318.457,290.788c0-5.184-2.681-9.504-8.014-12.871
	c-5.333-3.396-13.02-5.094-23.03-5.094c-9.891,0-17.518,1.698-22.881,5.094c-5.393,3.396-8.074,7.687-8.074,12.871
	c0,5.214,2.681,9.474,8.074,12.841s13.02,5.035,22.881,5.035c10.011,0,17.697-1.668,23.03-5.035
	C315.776,300.292,318.457,296.001,318.457,290.788z M328.021,251.014v-8.283h-11.44v-22.314h-9.385v51.244h9.385v-20.646H328.021z"
	/>
<path fill="#FFFFFF" d="M372.68,283.488c6.555,0,11.888,0.805,15.999,2.414c4.082,1.609,6.137,3.754,6.137,6.465
	c0,2.622-2.056,4.737-6.137,6.316c-4.112,1.578-9.444,2.383-15.999,2.383c-6.644,0-12.006-0.805-16.088-2.412
	c-4.082-1.609-6.137-3.725-6.137-6.376c0-2.771,2.056-4.916,6.137-6.465C360.674,284.263,366.037,283.488,372.68,283.488
	 M405.512,292.367c0-4.856-2.831-8.819-8.491-11.857c-5.661-3.039-13.764-4.529-24.341-4.529c-10.517,0-18.621,1.52-24.341,4.529
	c-5.72,3.009-8.581,6.971-8.581,11.857c0,4.797,2.86,8.76,8.581,11.857c5.72,3.1,13.824,4.648,24.341,4.648
	c10.577,0,18.68-1.549,24.341-4.648C402.682,301.126,405.512,297.193,405.512,292.367z M377.834,231.47h26.367v-8.104h-63.042v8.104
	h26.367c-0.923,3.307-4.022,6.555-9.236,9.832c-5.213,3.247-12.364,5.631-21.421,7.15l5.72,7.209
	c6.018-0.864,11.947-2.711,17.816-5.571c5.87-2.86,10.011-5.988,12.394-9.325c2.563,2.771,6.584,5.75,12.066,8.998
	c5.482,3.218,11.53,5.184,18.144,5.929l5.72-7.209c-11.619-2.116-19.514-4.946-23.685-8.551
	C380.844,236.326,378.46,233.526,377.834,231.47z M413.943,270.35v-8.282h-36.496v-11.56h-9.563v11.56h-36.497v8.282H413.943z"/>
<path fill="#FFFFFF" d="M482.349,298.802v-8.581H443.23v8.581 M460.66,257.241c0-1.698-1.043-3.128-3.129-4.29
	s-5.215-1.728-9.326-1.728c-4.141,0-7.27,0.536-9.414,1.579c-2.174,1.042-3.248,2.562-3.248,4.528c0,1.847,1.074,3.277,3.248,4.35
	c2.145,1.042,5.303,1.579,9.414,1.579s7.24-0.536,9.326-1.579C459.617,260.637,460.66,259.147,460.66,257.241z M491.615,306.31
	h-57.77v-31.998h9.385v8.402h39.119v-8.402h9.295v31.998H491.615z M447.998,270.35c-6.764,0-12.215-1.251-16.357-3.813
	c-4.17-2.532-6.227-5.601-6.227-9.236c0-3.694,2.086-6.763,6.227-9.236c4.172-2.473,9.684-3.694,16.564-3.694
	c7.121,0,12.662,1.251,16.596,3.694c3.932,2.473,5.898,5.542,5.898,9.236c0,3.635-1.996,6.704-6.018,9.236
	C460.689,269.099,455.148,270.35,447.998,270.35z M503.263,250.12h-11.648v19.544h-9.297v-49.248h9.297v21.421h11.648V250.12z
	 M474.185,240.646h-52.258v-7.597h52.258V240.646z M461.791,227.418h-27.498v-7.389h27.498V227.418z"/>
<path fill="#FFFFFF" d="M585.044,305.296v-8.282h-51.779v-18.77h-9.385v27.051 M582.81,283.31v-62.893h-9.385v26.456h-17.16v8.282
	h17.16v28.125h9.385V283.31z M555.699,226.227h-40.906v8.282h29.645c-0.447,7.24-3.992,14.182-10.695,20.885
	c-6.703,6.674-14.777,11.172-24.223,13.467l5.811,6.614c12.186-3.694,21.928-10.01,29.166-19.008
	C551.796,247.499,555.519,237.429,555.699,226.227z"/>
<path fill="#FFFFFF" d="M672.666,306.31v-7.627h-50.857v-6.912h48.771v-21.928h-58.633v7.597h48.801v7.121h-48.801v21.72
	 M650.619,256.347c-9.443-3.694-15.551-8.014-18.352-12.99c-2.771-4.976-4.172-9.117-4.172-12.483v-7.806h-9.861v7.806
	c0,3.813-1.578,8.64-4.797,14.509c-3.188,5.869-9.414,10.606-18.68,14.211l6.584,7.001c4.826-2.294,9.295-5.154,13.467-8.58
	c4.17-3.426,6.941-7.121,8.313-11.053c2.322,3.962,5.75,7.418,10.309,10.427c4.557,3.009,8.461,5.095,11.738,6.287L650.619,256.347z
	 M670.878,266.03v-45.613h-9.295v14.419h-17.549v8.283h17.549v22.911H670.878z"/>
<path fill="#FFFFFF" d="M725.667,308.753h-7.031c-3.129-5.006-6.494-11.232-10.129-18.71s-5.453-16.356-5.453-26.694
	c0-10.398,1.818-19.306,5.453-26.754s7-13.645,10.129-18.65h7.031c-4.768,8.551-8.133,16.535-10.129,23.954
	c-1.996,7.389-3.01,14.569-3.01,21.481c0,6.912,1.014,14.062,3.01,21.48C717.535,292.218,720.9,300.203,725.667,308.753"/>
<path fill="#FFFFFF" d="M814.033,277.083v-8.193h-82.557v8.193h36.586v30.209h9.385v-30.209 M777.716,232.066h26.545v-8.283H741.22
	v8.283h26.545c-0.625,2.622-3.248,6.435-7.836,11.411s-12.395,8.7-23.418,11.202l6.287,7.001c7.061-1.698,13.199-4.35,18.383-7.896
	s9.027-7.269,11.529-11.143c2.563,4.082,6.764,7.925,12.633,11.56c5.838,3.605,11.619,6.107,17.309,7.508l6.287-7.001
	c-11.143-2.771-18.949-6.555-23.508-11.411C780.933,238.441,778.341,234.688,777.716,232.066z"/>
<path fill="#FFFFFF" d="M819.277,308.753h7.031c3.129-5.006,6.494-11.232,10.129-18.71s5.453-16.356,5.453-26.694
	c0-10.398-1.818-19.306-5.453-26.754s-7-13.645-10.129-18.65h-7.031c4.736,8.551,8.133,16.535,10.129,23.954
	c1.996,7.389,3.01,14.569,3.01,21.481c0,6.912-1.014,14.062-3.01,21.48C827.41,292.218,824.044,300.203,819.277,308.753"/>
<path fill="#2C3077" d="M54.849,253.1L54.849,253.1l-0.269-0.328l0.269-0.328v-34.5H31.283v80.917h23.566 M82.556,218.271h23.894
	L79.011,253.1l51.036,55.773h-24.758l-48.92-54.313l-1.519-1.46v45.761h0.328v-80.917h-0.328v34.5L82.556,218.271z"/>
<path fill="#1DA0DB" d="M99.419,254.351c16.208,5.005,26.784,13.288,26.784,22.643c0,15.284-28.363,27.768-63.131,27.768
	C28.363,304.791,0,292.277,0,276.994c0-8.968,9.683-16.922,24.698-21.987c-5.452,4.201-8.759,9.474-8.759,15.075
	c0,14.211,20.944,25.801,46.626,25.801c25.622,0,46.537-11.589,46.537-25.801C109.102,264.153,105.467,258.701,99.419,254.351"/>
</svg>
