<?xml version="1.0" encoding="utf-8"?>
<!-- Generator: Adobe Illustrator 24.0.0, SVG Export Plug-In . SVG Version: 6.00 Build 0)  -->
<svg version="1.1" id="Layer_1" xmlns="http://www.w3.org/2000/svg" xmlns:xlink="http://www.w3.org/1999/xlink" x="0px" y="0px"
	 viewBox="0 0 282.58 53.5" style="enable-background:new 0 0 282.58 53.5;" xml:space="preserve">
<style type="text/css">
	.st0{fill-rule:evenodd;clip-rule:evenodd;fill:#1F1A17;}
	.st1{fill:#2C3077;}
	.st2{fill:#1DA0DB;}
</style>
<path class="st0" d="M20.53,51.14l-3.98-5.02c0.5-0.51,1.03-1.08,1.6-1.71c0.57-0.63,1.13-1.3,1.68-2h-1.11
	c-0.63,0.78-1.33,1.58-2.1,2.41c-0.77,0.83-1.51,1.58-2.21,2.24v-4.63h-0.86v8.71h0.86v-2.88c0.14-0.12,0.35-0.32,0.62-0.58
	c0.27-0.27,0.57-0.56,0.89-0.88l3.52,4.36"/>
<path class="st0" d="M26.15,51.16v-6.37h-0.83l-0.01,3.86c0,0.48-0.18,0.91-0.54,1.28c-0.36,0.37-0.81,0.56-1.35,0.58
	c-0.48,0.01-0.87-0.14-1.16-0.44c-0.29-0.3-0.44-0.73-0.44-1.29v-3.99h-0.84l-0.01,4.23c0,0.74,0.22,1.32,0.65,1.73
	c0.44,0.42,0.94,0.62,1.51,0.62c0.54,0,0.99-0.11,1.34-0.32c0.36-0.21,0.64-0.47,0.84-0.77l0.01,0.86"/>
<path class="st0" d="M35.64,51.12v-4.34c0-0.54-0.13-1.04-0.4-1.49c-0.27-0.45-0.7-0.7-1.29-0.73c-0.62-0.04-1.1,0.08-1.43,0.38
	c-0.33,0.3-0.55,0.53-0.67,0.71c-0.12-0.3-0.3-0.55-0.55-0.75c-0.25-0.2-0.55-0.32-0.9-0.33c-0.46-0.03-0.85,0.06-1.14,0.26
	c-0.3,0.2-0.54,0.44-0.73,0.71v-0.73h-0.86v6.33h0.86v-3.96c0-0.49,0.14-0.9,0.41-1.24c0.27-0.34,0.63-0.52,1.08-0.52
	c0.46-0.02,0.77,0.12,0.94,0.42c0.18,0.3,0.26,0.71,0.26,1.22l0.01,4.08h0.86v-3.96c0-0.51,0.14-0.93,0.41-1.26
	c0.27-0.33,0.63-0.5,1.08-0.5c0.46-0.02,0.77,0.12,0.94,0.42c0.17,0.3,0.25,0.71,0.25,1.22l0.01,4.08"/>
<path class="st0" d="M44.09,51.14V46.7h-3.53v0.8h2.65v0.31c0,0.66-0.24,1.29-0.73,1.86c-0.49,0.58-1.16,0.87-2.01,0.87
	c-0.87,0-1.56-0.35-2.06-1.06c-0.5-0.71-0.76-1.61-0.76-2.71c0-1.1,0.25-2,0.76-2.7c0.5-0.7,1.2-1.05,2.07-1.05
	c0.76,0,1.35,0.21,1.76,0.64c0.41,0.43,0.69,0.86,0.83,1.29L44,44.97c-0.13-0.54-0.47-1.14-1.04-1.8c-0.57-0.66-1.4-0.99-2.49-0.99
	c-1.16,0-2.08,0.42-2.75,1.27c-0.67,0.85-1.01,1.95-1.01,3.3c0,1.36,0.34,2.47,1.01,3.33c0.67,0.86,1.59,1.29,2.76,1.29
	c0.61,0,1.16-0.15,1.63-0.45c0.48-0.29,0.84-0.66,1.1-1.08l-0.01,1.27"/>
<path class="st0" d="M49.69,48.88c0,0.37-0.23,0.74-0.7,1.1c-0.46,0.36-0.98,0.57-1.54,0.61c-0.42,0.03-0.79-0.03-1.09-0.19
	c-0.31-0.16-0.47-0.42-0.5-0.78c-0.02-0.3,0.07-0.57,0.27-0.78c0.19-0.22,0.5-0.38,0.9-0.5c0.17-0.04,0.49-0.09,0.94-0.14
	c0.45-0.05,0.81-0.11,1.06-0.17c0.12-0.03,0.24-0.06,0.36-0.12c0.12-0.05,0.22-0.11,0.3-0.17 M50.79,51.16
	c-0.01-0.02-0.04-0.13-0.1-0.35c-0.06-0.21-0.09-0.45-0.09-0.71v-3.44c0-0.67-0.26-1.19-0.78-1.57c-0.52-0.38-1.14-0.56-1.85-0.56
	c-0.74,0-1.38,0.2-1.91,0.59c-0.53,0.39-0.77,0.92-0.71,1.57h0.84c-0.02-0.41,0.14-0.74,0.46-0.99c0.32-0.25,0.76-0.37,1.32-0.37
	c0.59,0,1.02,0.14,1.31,0.41c0.28,0.28,0.42,0.57,0.42,0.9c0,0.27-0.11,0.45-0.33,0.54c-0.22,0.09-0.42,0.16-0.62,0.2
	c-0.35,0.06-0.74,0.11-1.16,0.14c-0.42,0.03-0.81,0.1-1.17,0.22c-0.43,0.14-0.79,0.37-1.08,0.69c-0.29,0.32-0.41,0.77-0.35,1.34
	c0.06,0.56,0.31,0.97,0.76,1.24c0.45,0.27,0.99,0.39,1.62,0.35c0.5-0.03,0.97-0.16,1.38-0.4c0.42-0.24,0.73-0.49,0.95-0.74
	c0.01,0.17,0.03,0.35,0.07,0.53c0.04,0.18,0.08,0.32,0.13,0.41H50.79z"/>
<path class="st0" d="M57.2,51.12v-4.28c0-0.56-0.18-1.07-0.53-1.54c-0.35-0.47-0.85-0.72-1.48-0.75c-0.56-0.04-1.03,0.04-1.41,0.26
	c-0.38,0.21-0.69,0.46-0.93,0.75v-0.77h-0.86v6.33h0.86v-3.86c0-0.44,0.18-0.86,0.55-1.24c0.36-0.38,0.82-0.58,1.37-0.58
	c0.49,0,0.87,0.14,1.15,0.43c0.28,0.29,0.42,0.71,0.42,1.27l-0.01,3.98"/>
<path class="st0" d="M61.1,50.13c-0.61,0-1.09-0.23-1.44-0.68c-0.36-0.45-0.53-1.03-0.53-1.73c0-0.71,0.18-1.28,0.53-1.71
	c0.36-0.44,0.84-0.65,1.44-0.65c0.6,0,1.09,0.22,1.45,0.65c0.36,0.44,0.55,1.01,0.55,1.71c0,0.7-0.18,1.27-0.55,1.73
	C62.19,49.9,61.7,50.13,61.1,50.13 M63.95,44.77H63.1v0.89c-0.23-0.36-0.53-0.63-0.9-0.83c-0.37-0.2-0.78-0.29-1.22-0.29
	c-0.83,0-1.5,0.3-2.02,0.91c-0.52,0.61-0.78,1.37-0.78,2.28c0,0.91,0.27,1.67,0.8,2.3c0.53,0.63,1.2,0.94,2,0.94
	c0.44,0,0.85-0.1,1.22-0.31c0.37-0.21,0.68-0.49,0.91-0.85v1c0,0.57-0.16,1.03-0.48,1.38c-0.32,0.35-0.79,0.53-1.39,0.53
	c-0.59,0-1.04-0.14-1.37-0.42c-0.33-0.28-0.51-0.6-0.55-0.95h-0.86c0.06,0.51,0.31,0.99,0.76,1.47c0.45,0.47,1.12,0.71,2,0.71
	c0.74,0,1.39-0.23,1.94-0.69c0.55-0.46,0.82-1.14,0.81-2.03L63.95,44.77z"/>
<polyline class="st0" points="76.34,51.14 76.34,50.33 71.26,50.34 71.26,47.02 76.03,47.02 76.03,46.2 71.26,46.2 71.26,43.21 
	76.21,43.21 76.21,42.41 70.41,42.41 70.41,51.13 "/>
<path class="st0" d="M82.63,51.12v-4.28c0-0.56-0.18-1.07-0.53-1.54c-0.35-0.47-0.85-0.72-1.48-0.75c-0.56-0.04-1.03,0.04-1.41,0.26
	c-0.38,0.21-0.69,0.46-0.92,0.75v-0.77h-0.86v6.33h0.86v-3.86c0-0.44,0.18-0.86,0.55-1.24c0.36-0.38,0.82-0.58,1.37-0.58
	c0.49,0,0.87,0.14,1.15,0.43c0.28,0.29,0.42,0.71,0.42,1.27l-0.01,3.98"/>
<path class="st0" d="M86.53,50.13c-0.61,0-1.09-0.23-1.44-0.68c-0.36-0.45-0.53-1.03-0.53-1.73c0-0.71,0.18-1.28,0.53-1.71
	c0.36-0.44,0.84-0.65,1.44-0.65c0.6,0,1.09,0.22,1.45,0.65c0.37,0.44,0.55,1.01,0.55,1.71c0,0.7-0.18,1.27-0.55,1.73
	C87.62,49.9,87.14,50.13,86.53,50.13 M89.38,44.77h-0.84v0.89c-0.23-0.36-0.53-0.63-0.9-0.83c-0.37-0.2-0.78-0.29-1.22-0.29
	c-0.83,0-1.5,0.3-2.02,0.91c-0.52,0.61-0.78,1.37-0.78,2.28c0,0.91,0.26,1.67,0.79,2.3c0.53,0.63,1.2,0.94,2,0.94
	c0.44,0,0.84-0.1,1.22-0.31c0.37-0.21,0.68-0.49,0.91-0.85v1c0,0.57-0.16,1.03-0.49,1.38c-0.32,0.35-0.79,0.53-1.39,0.53
	c-0.59,0-1.04-0.14-1.37-0.42c-0.32-0.28-0.51-0.6-0.55-0.95h-0.86c0.06,0.51,0.31,0.99,0.76,1.47c0.45,0.47,1.12,0.71,1.99,0.71
	c0.74,0,1.39-0.23,1.94-0.69c0.55-0.46,0.82-1.14,0.81-2.03L89.38,44.77z"/>
<path class="st0" d="M91.85,51.14l-0.01-6.48h-0.84v6.46 M91.9,43.38v-1.03h-0.96v1.03H91.9z"/>
<path class="st0" d="M98.63,51.12v-4.28c0-0.56-0.18-1.07-0.53-1.54c-0.35-0.47-0.85-0.72-1.48-0.75c-0.56-0.04-1.03,0.04-1.41,0.26
	c-0.38,0.21-0.69,0.46-0.93,0.75v-0.77h-0.86v6.33h0.86v-3.86c0-0.44,0.18-0.86,0.55-1.24c0.36-0.38,0.82-0.58,1.37-0.58
	c0.49,0,0.87,0.14,1.15,0.43c0.28,0.29,0.42,0.71,0.42,1.27l-0.01,3.98"/>
<path class="st0" d="M100.52,47.45c0.04-0.63,0.25-1.13,0.63-1.52c0.38-0.38,0.84-0.58,1.38-0.58c0.55,0,1.02,0.19,1.41,0.58
	c0.39,0.39,0.59,0.89,0.62,1.51 M105.49,48.18c0.03-1.21-0.26-2.12-0.85-2.72c-0.59-0.6-1.29-0.9-2.11-0.9
	c-0.89,0-1.61,0.32-2.14,0.97c-0.53,0.65-0.8,1.46-0.8,2.43c0,0.97,0.27,1.78,0.82,2.43c0.55,0.65,1.26,0.98,2.14,0.98
	c0.82,0,1.44-0.21,1.86-0.64c0.42-0.43,0.71-0.87,0.86-1.33l-0.96-0.01c-0.09,0.3-0.28,0.57-0.57,0.81
	c-0.29,0.24-0.69,0.37-1.21,0.37c-0.5,0-0.96-0.22-1.38-0.65c-0.42-0.44-0.64-1-0.66-1.7L105.49,48.18z"/>
<path class="st0" d="M107.12,47.45c0.04-0.63,0.25-1.13,0.63-1.52c0.38-0.38,0.84-0.58,1.38-0.58c0.55,0,1.01,0.19,1.4,0.58
	c0.39,0.39,0.6,0.89,0.62,1.51 M112.09,48.18c0.02-1.21-0.26-2.12-0.85-2.72c-0.59-0.6-1.29-0.9-2.11-0.9
	c-0.89,0-1.61,0.32-2.14,0.97c-0.53,0.65-0.8,1.46-0.8,2.43c0,0.97,0.27,1.78,0.82,2.43c0.55,0.65,1.26,0.98,2.14,0.98
	c0.82,0,1.44-0.21,1.86-0.64c0.42-0.43,0.71-0.87,0.86-1.33l-0.96-0.01c-0.09,0.3-0.28,0.57-0.57,0.81
	c-0.29,0.24-0.69,0.37-1.21,0.37c-0.5,0-0.96-0.22-1.38-0.65c-0.42-0.44-0.64-1-0.66-1.7L112.09,48.18z"/>
<path class="st0" d="M116.33,44.57c-0.13,0-0.31,0.02-0.54,0.06c-0.23,0.04-0.44,0.11-0.64,0.2c-0.23,0.11-0.43,0.25-0.6,0.41
	c-0.17,0.16-0.32,0.34-0.44,0.56l-0.03-1.01h-0.83v6.33h0.86V47.8c0-0.53,0.09-0.96,0.27-1.28c0.18-0.32,0.44-0.58,0.78-0.79
	c0.17-0.1,0.36-0.17,0.58-0.2c0.22-0.03,0.43-0.05,0.61-0.05"/>
<path class="st0" d="M118.15,51.14l-0.01-6.48h-0.84v6.46 M118.2,43.38v-1.03h-0.96v1.03H118.2z"/>
<path class="st0" d="M124.94,51.12v-4.28c0-0.56-0.18-1.07-0.53-1.54c-0.35-0.47-0.85-0.72-1.48-0.75
	c-0.56-0.04-1.03,0.04-1.41,0.26c-0.38,0.21-0.69,0.46-0.93,0.75v-0.77h-0.86v6.33h0.86v-3.86c0-0.44,0.18-0.86,0.55-1.24
	c0.36-0.38,0.82-0.58,1.37-0.58c0.49,0,0.87,0.14,1.15,0.43c0.28,0.29,0.42,0.71,0.42,1.27l-0.01,3.98"/>
<path class="st0" d="M128.84,50.13c-0.61,0-1.09-0.23-1.44-0.68c-0.36-0.45-0.53-1.03-0.53-1.73c0-0.71,0.18-1.28,0.53-1.71
	c0.36-0.44,0.84-0.65,1.44-0.65c0.6,0,1.09,0.22,1.45,0.65c0.37,0.44,0.55,1.01,0.55,1.71c0,0.7-0.18,1.27-0.55,1.73
	C129.93,49.9,129.44,50.13,128.84,50.13 M131.68,44.77h-0.85v0.89c-0.23-0.36-0.53-0.63-0.9-0.83c-0.37-0.2-0.78-0.29-1.22-0.29
	c-0.83,0-1.5,0.3-2.02,0.91c-0.52,0.61-0.78,1.37-0.78,2.28c0,0.91,0.27,1.67,0.8,2.3c0.53,0.63,1.2,0.94,2,0.94
	c0.44,0,0.85-0.1,1.22-0.31c0.37-0.21,0.68-0.49,0.91-0.85v1c0,0.57-0.16,1.03-0.48,1.38c-0.32,0.35-0.79,0.53-1.39,0.53
	c-0.59,0-1.04-0.14-1.37-0.42c-0.32-0.28-0.51-0.6-0.55-0.95h-0.86c0.06,0.51,0.31,0.99,0.76,1.47c0.45,0.47,1.12,0.71,1.99,0.71
	c0.75,0,1.39-0.23,1.94-0.69c0.55-0.46,0.82-1.14,0.81-2.03L131.68,44.77z"/>
<path class="st0" d="M140.42,50.67c-0.51,0-0.95-0.17-1.31-0.5c-0.35-0.34-0.53-0.74-0.52-1.22c0.02-0.53,0.22-0.95,0.6-1.26
	c0.38-0.31,0.76-0.57,1.14-0.8c0.17,0.19,0.55,0.67,1.16,1.43c0.61,0.76,0.97,1.2,1.08,1.33c-0.26,0.3-0.58,0.55-0.98,0.74
	C141.19,50.57,140.8,50.67,140.42,50.67 M140.58,45.84c-0.17-0.2-0.36-0.45-0.57-0.76c-0.21-0.3-0.33-0.6-0.36-0.89
	c-0.03-0.34,0.07-0.65,0.3-0.92c0.23-0.28,0.58-0.41,1.03-0.41c0.42,0,0.74,0.14,0.99,0.42c0.25,0.28,0.34,0.61,0.27,0.97
	c-0.06,0.4-0.26,0.72-0.6,0.96C141.3,45.46,140.94,45.67,140.58,45.84z M145,51.27l-1.38-1.68c0.22-0.35,0.41-0.77,0.55-1.26
	c0.14-0.49,0.23-0.96,0.28-1.41h-0.83c-0.02,0.3-0.07,0.63-0.17,0.98c-0.09,0.36-0.23,0.68-0.39,0.98
	c-0.11-0.13-0.42-0.51-0.94-1.14c-0.52-0.63-0.86-1.05-1.03-1.26c0.34-0.18,0.74-0.44,1.21-0.78c0.46-0.34,0.72-0.83,0.78-1.47
	c0.07-0.59-0.11-1.1-0.52-1.53c-0.42-0.43-0.95-0.64-1.6-0.64c-0.68,0-1.22,0.21-1.64,0.64c-0.41,0.43-0.59,0.95-0.52,1.58
	c0.04,0.38,0.18,0.75,0.4,1.1c0.23,0.35,0.43,0.64,0.62,0.88c-0.5,0.29-0.96,0.64-1.39,1.07c-0.43,0.42-0.64,0.96-0.65,1.62
	c-0.01,0.82,0.26,1.45,0.8,1.9c0.54,0.45,1.15,0.67,1.82,0.67c0.47,0,0.94-0.11,1.4-0.31c0.46-0.21,0.89-0.51,1.28-0.92l0.8,0.98
	H145z"/>
<path class="st0" d="M157.83,44.97c-0.12-0.54-0.46-1.14-1.03-1.8c-0.57-0.66-1.4-0.99-2.49-0.99c-1.16,0-2.08,0.42-2.75,1.27
	c-0.67,0.85-1.01,1.95-1.01,3.3c0,1.37,0.34,2.48,1.01,3.33c0.67,0.85,1.59,1.27,2.75,1.27c1.1,0,1.93-0.33,2.47-1.01
	c0.54-0.67,0.89-1.3,1.02-1.88l-0.92-0.01c-0.12,0.46-0.38,0.92-0.79,1.39c-0.41,0.46-1.01,0.69-1.78,0.69
	c-0.87,0-1.56-0.35-2.07-1.06c-0.51-0.71-0.76-1.61-0.76-2.72c0-1.1,0.25-2,0.76-2.69c0.51-0.7,1.19-1.05,2.06-1.05
	c0.79,0,1.38,0.22,1.79,0.65c0.41,0.44,0.68,0.86,0.81,1.28"/>
<path class="st0" d="M161.53,50.56c-0.61,0-1.11-0.25-1.48-0.75c-0.37-0.5-0.56-1.12-0.56-1.86c0-0.75,0.18-1.37,0.56-1.86
	c0.37-0.49,0.87-0.73,1.48-0.73s1.11,0.24,1.48,0.73c0.38,0.49,0.57,1.11,0.57,1.86c0,0.74-0.19,1.36-0.57,1.86
	C162.64,50.31,162.14,50.56,161.53,50.56 M161.53,44.56c-0.92,0-1.64,0.32-2.17,0.97c-0.53,0.65-0.79,1.46-0.79,2.43
	c0,0.97,0.26,1.78,0.79,2.44c0.53,0.66,1.25,0.99,2.17,0.99c0.92,0,1.64-0.33,2.17-0.99c0.53-0.66,0.79-1.47,0.79-2.44
	c0-0.98-0.26-1.79-0.79-2.43C163.17,44.88,162.45,44.56,161.53,44.56z"/>
<path class="st0" d="M170.83,51.12v-4.28c0-0.56-0.18-1.07-0.53-1.54c-0.35-0.47-0.85-0.72-1.48-0.75
	c-0.56-0.04-1.03,0.04-1.41,0.26c-0.38,0.21-0.68,0.46-0.93,0.75v-0.77h-0.86v6.33h0.86v-3.86c0-0.44,0.18-0.86,0.55-1.24
	c0.36-0.38,0.82-0.58,1.37-0.58c0.49,0,0.87,0.14,1.15,0.43c0.28,0.29,0.42,0.71,0.42,1.27l-0.01,3.98"/>
<path class="st0" d="M175.75,47.84c-0.28-0.15-0.6-0.25-0.96-0.31c-0.36-0.06-0.66-0.13-0.91-0.22c-0.22-0.07-0.45-0.18-0.71-0.32
	c-0.26-0.14-0.38-0.37-0.36-0.67c0.02-0.3,0.15-0.55,0.41-0.73c0.26-0.18,0.62-0.27,1.08-0.27c0.56,0,0.96,0.14,1.21,0.41
	c0.25,0.28,0.37,0.56,0.37,0.86h0.86c0.03-0.44-0.16-0.91-0.56-1.39c-0.4-0.48-1.01-0.72-1.85-0.72c-0.76,0-1.33,0.19-1.73,0.58
	c-0.4,0.38-0.61,0.81-0.64,1.27c-0.02,0.43,0.11,0.77,0.37,1.02c0.26,0.25,0.57,0.45,0.93,0.58c0.26,0.1,0.58,0.18,0.93,0.24
	c0.36,0.07,0.68,0.17,0.97,0.29c0.26,0.11,0.48,0.25,0.67,0.43c0.19,0.17,0.27,0.39,0.22,0.65c-0.06,0.34-0.25,0.6-0.56,0.77
	c-0.32,0.17-0.68,0.26-1.09,0.26c-0.49,0-0.92-0.12-1.28-0.37c-0.36-0.25-0.55-0.61-0.56-1.08h-0.87c0,0.46,0.2,0.95,0.58,1.49
	c0.39,0.54,1.11,0.81,2.16,0.8c0.73-0.01,1.31-0.2,1.76-0.58c0.44-0.38,0.69-0.84,0.74-1.37c0.04-0.45-0.07-0.79-0.34-1.03
	C176.32,48.17,176.05,47.98,175.75,47.84"/>
<path class="st0" d="M179.93,45.51v-0.75l-0.87-0.01V42.8h-0.86l-0.01,1.95l-0.74,0.01v0.75h0.74v4.13c0,0.24,0.01,0.44,0.04,0.6
	c0.03,0.15,0.08,0.29,0.17,0.42c0.09,0.13,0.2,0.25,0.34,0.34c0.13,0.1,0.29,0.14,0.47,0.14h0.67v-0.76c-0.08,0-0.19-0.01-0.33-0.02
	c-0.14-0.01-0.25-0.06-0.34-0.14c-0.08-0.09-0.13-0.18-0.14-0.29c-0.01-0.11-0.01-0.24-0.01-0.41v-4.03"/>
<path class="st0" d="M184.18,44.57c-0.13,0-0.31,0.02-0.54,0.06c-0.23,0.04-0.44,0.11-0.64,0.2c-0.23,0.11-0.43,0.25-0.6,0.41
	c-0.17,0.16-0.32,0.34-0.44,0.56l-0.03-1.01h-0.83v6.33h0.86V47.8c0-0.53,0.09-0.96,0.27-1.28c0.18-0.32,0.44-0.58,0.78-0.79
	c0.17-0.1,0.36-0.17,0.58-0.2c0.22-0.03,0.43-0.05,0.61-0.05"/>
<path class="st0" d="M190.17,51.16v-6.37h-0.83l-0.01,3.86c0,0.48-0.18,0.91-0.54,1.28c-0.36,0.37-0.81,0.56-1.35,0.58
	c-0.48,0.01-0.87-0.14-1.16-0.44c-0.29-0.3-0.44-0.73-0.44-1.29v-3.99h-0.85l-0.01,4.23c0,0.74,0.22,1.32,0.65,1.73
	c0.44,0.42,0.94,0.62,1.51,0.62c0.54,0,0.99-0.11,1.34-0.32c0.36-0.21,0.64-0.47,0.84-0.77l0.01,0.86"/>
<path class="st0" d="M195.99,49.2c-0.11,0.38-0.32,0.69-0.63,0.96c-0.32,0.27-0.71,0.4-1.18,0.4c-0.6,0-1.09-0.25-1.47-0.73
	c-0.38-0.49-0.57-1.11-0.57-1.87c0-0.75,0.19-1.37,0.57-1.86c0.38-0.49,0.87-0.73,1.47-0.73c0.58,0,1.01,0.16,1.3,0.48
	c0.29,0.32,0.46,0.63,0.53,0.93l0.92-0.01c-0.08-0.51-0.36-1-0.83-1.49c-0.47-0.48-1.11-0.73-1.91-0.73c-0.92,0-1.64,0.33-2.17,0.98
	c-0.53,0.65-0.79,1.46-0.79,2.43c0,0.97,0.26,1.78,0.79,2.44c0.53,0.66,1.25,0.99,2.17,0.99c0.79,0,1.42-0.23,1.87-0.68
	c0.45-0.45,0.74-0.95,0.88-1.49"/>
<path class="st0" d="M199.87,45.51v-0.75L199,44.75V42.8h-0.86l-0.01,1.95l-0.75,0.01v0.75h0.75v4.13c0,0.24,0.01,0.44,0.04,0.6
	c0.03,0.15,0.08,0.29,0.17,0.42c0.09,0.13,0.2,0.25,0.34,0.34c0.13,0.1,0.29,0.14,0.47,0.14h0.67v-0.76c-0.08,0-0.19-0.01-0.34-0.02
	c-0.14-0.01-0.25-0.06-0.34-0.14c-0.08-0.09-0.13-0.18-0.14-0.29c-0.01-0.11-0.01-0.24-0.01-0.41v-4.03"/>
<path class="st0" d="M201.9,51.14l-0.01-6.48h-0.84v6.46 M201.95,43.38v-1.03h-0.96v1.03H201.95z"/>
<path class="st0" d="M205.97,50.56c-0.61,0-1.11-0.25-1.48-0.75c-0.37-0.5-0.56-1.12-0.56-1.86c0-0.75,0.18-1.37,0.56-1.86
	c0.37-0.49,0.87-0.73,1.48-0.73c0.61,0,1.11,0.24,1.48,0.73c0.38,0.49,0.57,1.11,0.57,1.86c0,0.74-0.19,1.36-0.57,1.86
	C207.08,50.31,206.59,50.56,205.97,50.56 M205.97,44.56c-0.92,0-1.64,0.32-2.17,0.97c-0.53,0.65-0.79,1.46-0.79,2.43
	c0,0.97,0.26,1.78,0.79,2.44c0.53,0.66,1.25,0.99,2.17,0.99c0.92,0,1.64-0.33,2.17-0.99c0.53-0.66,0.79-1.47,0.79-2.44
	c0-0.98-0.26-1.79-0.79-2.43C207.62,44.88,206.89,44.56,205.97,44.56z"/>
<path class="st0" d="M215.28,51.12v-4.28c0-0.56-0.18-1.07-0.53-1.54c-0.35-0.47-0.85-0.72-1.48-0.75
	c-0.56-0.04-1.03,0.04-1.41,0.26c-0.38,0.21-0.68,0.46-0.93,0.75v-0.77h-0.86v6.33h0.86v-3.86c0-0.44,0.18-0.86,0.55-1.24
	c0.36-0.38,0.82-0.58,1.37-0.58c0.49,0,0.87,0.14,1.15,0.43c0.28,0.29,0.42,0.71,0.42,1.27l-0.01,3.98"/>
<path class="st0" d="M228.47,44.97c-0.12-0.54-0.46-1.14-1.03-1.8c-0.57-0.66-1.4-0.99-2.49-0.99c-1.16,0-2.08,0.42-2.75,1.27
	c-0.67,0.85-1.01,1.95-1.01,3.3c0,1.37,0.34,2.48,1.01,3.33c0.67,0.85,1.59,1.27,2.75,1.27c1.1,0,1.93-0.33,2.47-1.01
	c0.55-0.67,0.89-1.3,1.02-1.88l-0.92-0.01c-0.12,0.46-0.38,0.92-0.79,1.39c-0.41,0.46-1.01,0.69-1.78,0.69
	c-0.87,0-1.56-0.35-2.07-1.06c-0.51-0.71-0.76-1.61-0.76-2.72c0-1.1,0.25-2,0.76-2.69c0.51-0.7,1.19-1.05,2.05-1.05
	c0.79,0,1.38,0.22,1.79,0.65c0.41,0.44,0.68,0.86,0.81,1.28"/>
<path class="st0" d="M232.18,50.56c-0.61,0-1.11-0.25-1.48-0.75c-0.37-0.5-0.56-1.12-0.56-1.86c0-0.75,0.18-1.37,0.56-1.86
	c0.37-0.49,0.87-0.73,1.48-0.73c0.61,0,1.11,0.24,1.48,0.73c0.38,0.49,0.57,1.11,0.57,1.86c0,0.74-0.19,1.36-0.57,1.86
	C233.28,50.31,232.79,50.56,232.18,50.56 M232.18,44.56c-0.92,0-1.64,0.32-2.17,0.97c-0.53,0.65-0.79,1.46-0.79,2.43
	c0,0.97,0.26,1.78,0.79,2.44c0.53,0.66,1.25,0.99,2.17,0.99c0.92,0,1.65-0.33,2.17-0.99s0.79-1.47,0.79-2.44
	c0-0.98-0.26-1.79-0.79-2.43S233.1,44.56,232.18,44.56z"/>
<polyline class="st0" points="237.57,52.54 237.57,51.14 236.19,51.14 236.19,52.54 "/>
<path class="st0" d="M240.76,50.82h-1.39v1.39h0.76c0,0.09,0,0.15-0.01,0.19c-0.01,0.04-0.05,0.12-0.13,0.23
	c-0.06,0.09-0.16,0.17-0.29,0.27c-0.14,0.09-0.25,0.15-0.34,0.18l0.36,0.39c0.12-0.04,0.26-0.12,0.42-0.23
	c0.17-0.11,0.29-0.25,0.39-0.41c0.09-0.17,0.15-0.32,0.19-0.45c0.03-0.13,0.05-0.31,0.05-0.53"/>
<polyline class="st0" points="253.09,51.14 253.07,50.33 248.34,50.34 248.33,42.41 247.48,42.41 247.48,51.13 "/>
<path class="st0" d="M255.76,45.51v-0.75l-0.87-0.01V42.8h-0.86l-0.01,1.95l-0.75,0.01v0.75h0.75v4.13c0,0.24,0.01,0.44,0.04,0.6
	c0.03,0.15,0.08,0.29,0.17,0.42c0.09,0.13,0.2,0.25,0.34,0.34c0.13,0.1,0.29,0.14,0.47,0.14h0.67v-0.76c-0.08,0-0.2-0.01-0.34-0.02
	c-0.14-0.01-0.25-0.06-0.34-0.14c-0.08-0.09-0.13-0.18-0.14-0.29c-0.01-0.11-0.01-0.24-0.01-0.41v-4.03"/>
<path class="st0" d="M259.43,50.55c-0.62,0-1.11-0.25-1.46-0.74c-0.35-0.49-0.53-1.11-0.53-1.84c0-0.74,0.18-1.35,0.53-1.84
	c0.35-0.49,0.84-0.73,1.46-0.73c0.62,0,1.11,0.24,1.47,0.71c0.35,0.48,0.53,1.09,0.53,1.85c0,0.76-0.18,1.38-0.53,1.86
	C260.54,50.31,260.06,50.55,259.43,50.55 M262.31,51.14l-0.01-8.74h-0.86l-0.01,3.32c-0.23-0.37-0.53-0.65-0.9-0.86
	c-0.36-0.2-0.77-0.31-1.22-0.31c-0.84,0-1.52,0.32-2.04,0.96c-0.51,0.64-0.77,1.46-0.77,2.45c0,0.98,0.26,1.79,0.77,2.44
	c0.51,0.65,1.19,0.98,2.04,0.98c0.45,0,0.85-0.1,1.22-0.31c0.37-0.21,0.67-0.49,0.89-0.86l0.01,0.9L262.31,51.14z"/>
<polyline class="st0" points="265.17,52.54 265.17,51.14 263.8,51.14 263.8,52.54 "/>
<path class="st0" d="M73.23,26.91H59.15v-5.6h14.08 M76.47,29.66v-11.1H55.94v11.1H76.47z M80.06,15.31v-2.78h-4.69
	c0.19-0.77,0.49-2.12,0.9-4.03c0.41-1.91,0.67-4.07,0.77-6.48H55.53v2.78h17.88c-0.1,1.33-0.3,2.75-0.58,4.29
	c-0.28,1.53-0.51,2.68-0.68,3.43H52.35v2.78H80.06z"/>
<path class="st0" d="M98.26,2.78H84.19v2.78h10.3c-0.15,1.37-1.01,3.18-2.6,5.43c-1.59,2.25-4.68,3.91-9.27,4.97l1.79,2.19
	c4.47-0.84,7.89-2.82,10.26-5.93C97.04,9.11,98.24,5.96,98.26,2.78 M103.55,24.49c0,1.02-0.67,1.83-2,2.43
	c-1.33,0.61-3.02,0.91-5.05,0.91c-2.04,0-3.72-0.3-5.05-0.91c-1.33-0.61-2-1.42-2-2.43c0-1.04,0.67-1.86,2-2.45
	c1.33-0.6,3.02-0.89,5.05-0.89c2.06,0,3.75,0.3,5.07,0.89C102.89,22.63,103.55,23.45,103.55,24.49z M106.89,24.45
	c0-1.74-0.9-3.19-2.69-4.32c-1.79-1.14-4.37-1.71-7.73-1.71c-3.32,0-5.88,0.57-7.68,1.71c-1.81,1.14-2.71,2.58-2.71,4.32
	c0,1.75,0.9,3.18,2.71,4.31c1.81,1.13,4.37,1.69,7.68,1.69c3.36,0,5.94-0.56,7.73-1.69C105.99,27.64,106.89,26.2,106.89,24.45z
	 M110.1,11.1V8.32h-3.84V0.83h-3.15v17.2h3.15V11.1H110.1z"/>
<path class="st0" d="M125.09,22c2.2,0,3.99,0.27,5.37,0.81c1.37,0.54,2.06,1.26,2.06,2.17c0,0.88-0.69,1.59-2.06,2.12
	c-1.38,0.53-3.17,0.8-5.37,0.8c-2.23,0-4.03-0.27-5.4-0.81c-1.37-0.54-2.06-1.25-2.06-2.14c0-0.93,0.69-1.65,2.06-2.17
	C121.06,22.26,122.86,22,125.09,22 M136.11,24.98c0-1.63-0.95-2.96-2.85-3.98c-1.9-1.02-4.62-1.52-8.17-1.52
	c-3.53,0-6.25,0.51-8.17,1.52c-1.92,1.01-2.88,2.34-2.88,3.98c0,1.61,0.96,2.94,2.88,3.98c1.92,1.04,4.64,1.56,8.17,1.56
	c3.55,0,6.27-0.52,8.17-1.56C135.16,27.92,136.11,26.6,136.11,24.98z M126.82,4.54h8.85V1.82h-21.16v2.72h8.85
	c-0.31,1.11-1.35,2.2-3.1,3.3c-1.75,1.09-4.15,1.89-7.19,2.4l1.92,2.42c2.02-0.29,4.01-0.91,5.98-1.87
	c1.97-0.96,3.36-2.01,4.16-3.13c0.86,0.93,2.21,1.93,4.05,3.02c1.84,1.08,3.87,1.74,6.09,1.99l1.92-2.42
	c-3.9-0.71-6.55-1.66-7.95-2.87C127.83,6.17,127.03,5.23,126.82,4.54z M138.94,17.59v-2.78h-12.25v-3.88h-3.21v3.88h-12.25v2.78
	H138.94z"/>
<path class="st0" d="M161.9,27.14v-2.88h-13.13v2.88 M154.62,13.19c0-0.57-0.35-1.05-1.05-1.44c-0.7-0.39-1.75-0.58-3.13-0.58
	c-1.39,0-2.44,0.18-3.16,0.53c-0.73,0.35-1.09,0.86-1.09,1.52c0,0.62,0.36,1.1,1.09,1.46c0.72,0.35,1.78,0.53,3.16,0.53
	c1.38,0,2.43-0.18,3.13-0.53C154.27,14.33,154.62,13.83,154.62,13.19z M165.01,29.66h-19.39V18.92h3.15v2.82h13.13v-2.82h3.12V29.66
	z M150.37,17.59c-2.27,0-4.1-0.42-5.49-1.28c-1.4-0.85-2.09-1.88-2.09-3.1c0-1.24,0.7-2.27,2.09-3.1c1.4-0.83,3.25-1.24,5.56-1.24
	c2.39,0,4.25,0.42,5.57,1.24c1.32,0.83,1.98,1.86,1.98,3.1c0,1.22-0.67,2.25-2.02,3.1C154.63,17.17,152.77,17.59,150.37,17.59z
	 M168.92,10.8h-3.91v6.56h-3.12V0.83h3.12v7.19h3.91V10.8z M159.16,7.62h-17.54V5.07h17.54V7.62z M155,3.18h-9.23V0.7H155V3.18z"/>
<path class="st0" d="M196.37,29.32v-2.78h-17.38v-6.3h-3.15v9.08 M195.62,21.94V0.83h-3.15v8.88h-5.76v2.78h5.76v9.44H195.62z
	 M186.52,2.78h-13.73v2.78h9.95c-0.15,2.43-1.34,4.76-3.59,7.01c-2.25,2.24-4.96,3.75-8.13,4.52l1.95,2.22
	c4.09-1.24,7.36-3.36,9.79-6.38C185.21,9.92,186.46,6.54,186.52,2.78z"/>
<path class="st0" d="M225.78,29.66V27.1h-17.07v-2.32h16.37v-7.36h-19.68v2.55h16.38v2.39h-16.38v7.29 M218.38,12.89
	c-3.17-1.24-5.22-2.69-6.16-4.36c-0.93-1.67-1.4-3.06-1.4-4.19V1.72h-3.31v2.62c0,1.28-0.53,2.9-1.61,4.87
	c-1.07,1.97-3.16,3.56-6.27,4.77l2.21,2.35c1.62-0.77,3.12-1.73,4.52-2.88c1.4-1.15,2.33-2.39,2.79-3.71
	c0.78,1.33,1.93,2.49,3.46,3.5c1.53,1.01,2.84,1.71,3.94,2.11L218.38,12.89z M225.18,16.14V0.83h-3.12v4.84h-5.89v2.78h5.89v7.69
	H225.18z"/>
<path class="st0" d="M243.57,30.48h-2.36c-1.05-1.68-2.18-3.77-3.4-6.28c-1.22-2.51-1.83-5.49-1.83-8.96c0-3.49,0.61-6.48,1.83-8.98
	c1.22-2.5,2.35-4.58,3.4-6.26h2.36c-1.6,2.87-2.73,5.55-3.4,8.04c-0.67,2.48-1.01,4.89-1.01,7.21c0,2.32,0.34,4.72,1.01,7.21
	C240.84,24.93,241.97,27.61,243.57,30.48"/>
<path class="st0" d="M273.23,19.85V17.1h-27.71v2.75h12.28v10.14h3.15V19.85 M261.04,4.74h8.91V1.96h-21.16v2.78h8.91
	c-0.21,0.88-1.09,2.16-2.63,3.83c-1.54,1.67-4.16,2.92-7.86,3.76l2.11,2.35c2.37-0.57,4.43-1.46,6.17-2.65
	c1.74-1.19,3.03-2.44,3.87-3.74c0.86,1.37,2.27,2.66,4.24,3.88c1.96,1.21,3.9,2.05,5.81,2.52l2.11-2.35
	c-3.74-0.93-6.36-2.2-7.89-3.83C262.12,6.88,261.25,5.62,261.04,4.74z"/>
<path class="st0" d="M274.99,30.48h2.36c1.05-1.68,2.18-3.77,3.4-6.28c1.22-2.51,1.83-5.49,1.83-8.96c0-3.49-0.61-6.48-1.83-8.98
	c-1.22-2.5-2.35-4.58-3.4-6.26h-2.36c1.59,2.87,2.73,5.55,3.4,8.04c0.67,2.48,1.01,4.89,1.01,7.21c0,2.32-0.34,4.72-1.01,7.21
	C277.72,24.93,276.59,27.61,274.99,30.48"/>
<path class="st1" d="M18.41,11.8L18.41,11.8l-0.09-0.11l0.09-0.11V0H10.5v27.16h7.91 M27.71,0.11h8.02L26.52,11.8l17.13,18.72h-8.31
	L18.92,12.29l-0.51-0.49v15.36h0.11V0h-0.11v11.58L27.71,0.11z"/>
<path class="st2" d="M33.37,12.22c5.44,1.68,8.99,4.46,8.99,7.6c0,5.13-9.52,9.32-21.19,9.32C9.52,29.15,0,24.95,0,19.82
	c0-3.01,3.25-5.68,8.29-7.38c-1.83,1.41-2.94,3.18-2.94,5.06c0,4.77,7.03,8.66,15.65,8.66c8.6,0,15.62-3.89,15.62-8.66
	C36.62,15.51,35.4,13.68,33.37,12.22"/>
</svg>
