<?xml version="1.0" encoding="utf-8"?>
<!-- Generator: Adobe Illustrator 24.0.0, SVG Export Plug-In . SVG Version: 6.00 Build 0)  -->
<svg version="1.1" id="Layer_1" xmlns="http://www.w3.org/2000/svg" xmlns:xlink="http://www.w3.org/1999/xlink" x="0px" y="0px"
	 viewBox="0 0 282.6 30.5" style="enable-background:new 0 0 282.6 30.5;" xml:space="preserve">
<style type="text/css">
	.st0{fill-rule:evenodd;clip-rule:evenodd;fill:#FFFFFF;}
	.st1{fill:#2C3077;}
	.st2{fill:#1DA0DB;}
</style>
<path class="st0" d="M73.2,26.9H59.2v-5.6h14.1 M76.5,29.7V18.6H55.9v11.1H76.5z M80.1,15.3v-2.8h-4.7c0.2-0.8,0.5-2.1,0.9-4
	S76.9,4.4,77,2H55.5v2.8h17.9c-0.1,1.3-0.3,2.8-0.6,4.3c-0.3,1.5-0.5,2.7-0.7,3.4H52.3v2.8L80.1,15.3L80.1,15.3z"/>
<path class="st0" d="M98.3,2.8H84.2v2.8h10.3c-0.2,1.4-1,3.2-2.6,5.4s-4.7,3.9-9.3,5l1.8,2.2c4.5-0.8,7.9-2.8,10.3-5.9
	C97,9.1,98.2,6,98.3,2.8 M103.6,24.5c0,1-0.7,1.8-2,2.4c-1.3,0.6-3,0.9-5.1,0.9c-2,0-3.7-0.3-5.1-0.9s-2-1.4-2-2.4
	c0-1,0.7-1.9,2-2.5c1.3-0.6,3-0.9,5.1-0.9c2.1,0,3.8,0.3,5.1,0.9S103.6,23.5,103.6,24.5z M106.9,24.5c0-1.7-0.9-3.2-2.7-4.3
	c-1.8-1.1-4.4-1.7-7.7-1.7c-3.3,0-5.9,0.6-7.7,1.7c-1.8,1.1-2.7,2.6-2.7,4.3c0,1.8,0.9,3.2,2.7,4.3c1.8,1.1,4.4,1.7,7.7,1.7
	c3.4,0,5.9-0.6,7.7-1.7C106,27.6,106.9,26.2,106.9,24.5z M110.1,11.1V8.3h-3.8V0.8h-3.2V18h3.2v-6.9H110.1z"/>
<path class="st0" d="M125.1,22c2.2,0,4,0.3,5.4,0.8c1.4,0.5,2.1,1.3,2.1,2.2c0,0.9-0.7,1.6-2.1,2.1c-1.4,0.5-3.2,0.8-5.4,0.8
	c-2.2,0-4-0.3-5.4-0.8c-1.4-0.5-2.1-1.3-2.1-2.1c0-0.9,0.7-1.7,2.1-2.2C121.1,22.3,122.9,22,125.1,22 M136.1,25c0-1.6-0.9-3-2.9-4
	c-1.9-1-4.6-1.5-8.2-1.5c-3.5,0-6.3,0.5-8.2,1.5c-1.9,1-2.9,2.3-2.9,4c0,1.6,1,2.9,2.9,4c1.9,1,4.6,1.6,8.2,1.6
	c3.6,0,6.3-0.5,8.2-1.6C135.2,27.9,136.1,26.6,136.1,25z M126.8,4.5h8.8V1.8h-21.2v2.7h8.8c-0.3,1.1-1.3,2.2-3.1,3.3
	c-1.8,1.1-4.2,1.9-7.2,2.4l1.9,2.4c2-0.3,4-0.9,6-1.9s3.4-2,4.2-3.1c0.9,0.9,2.2,1.9,4.1,3c1.8,1.1,3.9,1.7,6.1,2l1.9-2.4
	c-3.9-0.7-6.6-1.7-7.9-2.9C127.8,6.2,127,5.2,126.8,4.5z M138.9,17.6v-2.8h-12.3v-3.9h-3.2v3.9h-12.3v2.8H138.9z"/>
<path class="st0" d="M161.9,27.1v-2.9h-13.1v2.9 M154.6,13.2c0-0.6-0.4-1.1-1.1-1.4c-0.7-0.4-1.8-0.6-3.1-0.6
	c-1.4,0-2.4,0.2-3.2,0.5c-0.7,0.4-1.1,0.9-1.1,1.5c0,0.6,0.4,1.1,1.1,1.5c0.7,0.4,1.8,0.5,3.2,0.5s2.4-0.2,3.1-0.5
	S154.6,13.8,154.6,13.2z M165,29.7h-19.4V18.9h3.1v2.8h13.1v-2.8h3.1L165,29.7L165,29.7z M150.4,17.6c-2.3,0-4.1-0.4-5.5-1.3
	c-1.4-0.9-2.1-1.9-2.1-3.1c0-1.2,0.7-2.3,2.1-3.1c1.4-0.8,3.3-1.2,5.6-1.2c2.4,0,4.3,0.4,5.6,1.2c1.3,0.8,2,1.9,2,3.1
	c0,1.2-0.7,2.3-2,3.1C154.6,17.2,152.8,17.6,150.4,17.6z M168.9,10.8H165v6.6h-3.1V0.8h3.1V8h3.9V10.8z M159.2,7.6h-17.5V5.1h17.5
	V7.6z M155,3.2h-9.2V0.7h9.2V3.2z"/>
<path class="st0" d="M196.4,29.3v-2.8H179v-6.3h-3.1v9.1 M195.6,21.9V0.8h-3.1v8.9h-5.8v2.8h5.8v9.4L195.6,21.9L195.6,21.9z
	 M186.5,2.8h-13.7v2.8h9.9c-0.1,2.4-1.3,4.8-3.6,7c-2.3,2.2-5,3.7-8.1,4.5l1.9,2.2c4.1-1.2,7.4-3.4,9.8-6.4
	C185.2,9.9,186.5,6.5,186.5,2.8z"/>
<path class="st0" d="M225.8,29.7v-2.6h-17.1v-2.3h16.4v-7.4h-19.7V20h16.4v2.4h-16.4v7.3 M218.4,12.9c-3.2-1.2-5.2-2.7-6.2-4.4
	c-0.9-1.7-1.4-3.1-1.4-4.2V1.7h-3.3v2.6c0,1.3-0.5,2.9-1.6,4.9c-1.1,2-3.2,3.6-6.3,4.8l2.2,2.4c1.6-0.8,3.1-1.7,4.5-2.9
	c1.4-1.1,2.3-2.4,2.8-3.7c0.8,1.3,1.9,2.5,3.5,3.5c1.5,1,2.8,1.7,3.9,2.1L218.4,12.9z M225.2,16.1V0.8h-3.1v4.8h-5.9v2.8h5.9v7.7
	H225.2z"/>
<path class="st0" d="M243.6,30.5h-2.4c-1.1-1.7-2.2-3.8-3.4-6.3c-1.2-2.5-1.8-5.5-1.8-9c0-3.5,0.6-6.5,1.8-9s2.4-4.6,3.4-6.3h2.4
	c-1.6,2.9-2.7,5.6-3.4,8c-0.7,2.5-1,4.9-1,7.2s0.3,4.7,1,7.2C240.8,24.9,242,27.6,243.6,30.5"/>
<path class="st0" d="M273.2,19.9v-2.8h-27.7v2.8h12.3V30h3.1V19.9 M261,4.7h8.9V2h-21.2v2.8h8.9c-0.2,0.9-1.1,2.2-2.6,3.8
	c-1.5,1.7-4.2,2.9-7.9,3.8l2.1,2.4c2.4-0.6,4.4-1.5,6.2-2.6s3-2.4,3.9-3.7c0.9,1.4,2.3,2.7,4.2,3.9c2,1.2,3.9,2.1,5.8,2.5l2.1-2.4
	c-3.7-0.9-6.4-2.2-7.9-3.8C262.1,6.9,261.3,5.6,261,4.7z"/>
<path class="st0" d="M275,30.5h2.4c1-1.7,2.2-3.8,3.4-6.3c1.2-2.5,1.8-5.5,1.8-9c0-3.5-0.6-6.5-1.8-9s-2.4-4.6-3.4-6.3H275
	c1.6,2.9,2.7,5.6,3.4,8c0.7,2.5,1,4.9,1,7.2s-0.3,4.7-1,7.2C277.7,24.9,276.6,27.6,275,30.5"/>
<path class="st1" d="M18.4,11.8L18.4,11.8l-0.1-0.1l0.1-0.1V0h-7.9v27.2h7.9 M27.7,0.1h8l-9.2,11.7l17.1,18.7h-8.3L18.9,12.3
	l-0.5-0.5v15.4h0.1V0h-0.1v11.6L27.7,0.1z"/>
<path class="st2" d="M33.4,12.2c5.4,1.7,9,4.5,9,7.6c0,5.1-9.5,9.3-21.2,9.3C9.5,29.2,0,25,0,19.8c0-3,3.3-5.7,8.3-7.4
	c-1.8,1.4-2.9,3.2-2.9,5.1c0,4.8,7,8.7,15.6,8.7c8.6,0,15.6-3.9,15.6-8.7C36.6,15.5,35.4,13.7,33.4,12.2"/>
</svg>
