<?xml version="1.0" encoding="utf-8"?>
<!-- Generator: Adobe Illustrator 24.0.0, SVG Export Plug-In . SVG Version: 6.00 Build 0)  -->
<svg version="1.1" id="Capa_1" xmlns="http://www.w3.org/2000/svg" xmlns:xlink="http://www.w3.org/1999/xlink" x="0px" y="0px"
	 viewBox="0 0 108.76 107.72" style="enable-background:new 0 0 108.76 107.72;" xml:space="preserve">
<style type="text/css">
	.st0{fill:#D3D3D3;}
	.st1{fill:#26211D;}
	.st2{fill:#7DBCB2;}
	.st3{fill:#F3F4F9;}
	.st4{fill:#D3D3D3;stroke:#A3A3A3;stroke-width:2;stroke-miterlimit:10;}
</style>
<rect x="16.68" y="1.8" class="st0" width="75.4" height="14.36"/>
<path class="st1" d="M90.28,14.36H18.47V3.59h71.81V14.36z M93.88,0h-3.59H18.47h-3.59v3.59v10.77v3.59h3.59h71.81h3.59v-3.59V3.59
	V0z"/>
<path class="st2" d="M46.43,53.27c-0.59,0.18-1.17,0.38-1.74,0.61c-3.52,1.36-6.68,3.45-9.32,6.07c-0.45,0.43-0.86,0.88-1.27,1.37
	L2.46,9.43l13.02-8.35L46.43,53.27z"/>
<path class="st1" d="M17.97,1.76L16.93,0h-3.09l-0.9,0.57L2.96,6.97L0,8.85l1.83,3l31.06,50.93c0.38-0.5,0.79-1,1.2-1.47
	c0.41-0.49,0.83-0.93,1.27-1.37L4.9,9.98l9.98-6.39l29.8,50.29c0.57-0.23,1.15-0.43,1.74-0.61c0.59-0.18,1.19-0.34,1.78-0.48
	L17.97,1.76z"/>
<path class="st2" d="M106.3,9.43L74.67,61.31c-0.41-0.49-0.83-0.93-1.27-1.37c-2.64-2.62-5.8-4.7-9.32-6.07
	c-0.58-0.23-1.15-0.43-1.74-0.61L93.28,1.08L106.3,9.43z"/>
<path class="st1" d="M105.79,6.97l-9.98-6.39L94.92,0h-3.09l-1.04,1.76L60.56,52.78c0.59,0.14,1.18,0.31,1.78,0.48
	s1.17,0.38,1.74,0.61l29.8-50.29l9.98,6.39L73.39,59.94c0.45,0.43,0.86,0.88,1.27,1.37c0.41,0.47,0.83,0.97,1.2,1.47l31.06-50.93
	l1.83-3L105.79,6.97z"/>
<g>
	<path class="st3" d="M54.38,105.92c-14.85,0-26.93-12.08-26.93-26.93c0-14.85,12.08-26.93,26.93-26.93
		c14.85,0,26.93,12.08,26.93,26.93C81.31,93.84,69.23,105.92,54.38,105.92"/>
	<path class="st1" d="M54.38,53.86c13.88,0,25.13,11.25,25.13,25.13s-11.25,25.13-25.13,25.13c-13.88,0-25.13-11.25-25.13-25.13
		S40.5,53.86,54.38,53.86 M54.38,50.27c-15.84,0-28.72,12.89-28.72,28.72c0,15.84,12.89,28.72,28.72,28.72
		c15.84,0,28.72-12.89,28.72-28.72C83.1,63.15,70.22,50.27,54.38,50.27"/>
	<line class="st4" x1="38.04" y1="86.1" x2="59.76" y2="61.04"/>
	<line class="st4" x1="43.61" y1="93.35" x2="66.95" y2="66.43"/>
	<path class="st1" d="M54.38,62.83c8.91,0,16.16,7.25,16.16,16.16s-7.25,16.16-16.16,16.16c-8.91,0-16.16-7.25-16.16-16.16
		S45.47,62.83,54.38,62.83 M54.38,59.24c-10.89,0-19.75,8.86-19.75,19.75s8.86,19.75,19.75,19.75c10.89,0,19.75-8.86,19.75-19.75
		S65.27,59.24,54.38,59.24"/>
</g>
</svg>
