<?xml version="1.0" encoding="utf-8"?>
<!-- Generator: Adobe Illustrator 24.0.0, SVG Export Plug-In . SVG Version: 6.00 Build 0)  -->
<svg version="1.1" id="Capa_1" xmlns="http://www.w3.org/2000/svg" xmlns:xlink="http://www.w3.org/1999/xlink" x="0px" y="0px"
	 viewBox="0 0 38.89 107.72" style="enable-background:new 0 0 38.89 107.72;" xml:space="preserve">
<style type="text/css">
	.st0{fill:#D3D3D3;}
	.st1{fill:#F3F4F9;}
	.st2{fill:#26211D;}
	.st3{fill:#A3A3A3;}
	.st4{fill:#7DBCB2;}
</style>
<path class="st0" d="M19.44,65.29v41.1c0,0-3.54,0.65-3.54-2.88l-3.54-38.22H19.44z"/>
<path class="st1" d="M26.51,65.29l-3.54,38c0,3.54-3.54,3.09-3.54,3.09v-41.1H26.51z"/>
<path class="st1" d="M37.12,25.52c0,7.07-3.54,13.26-3.54,13.26H5.3c0,0-3.54-6.19-3.54-13.26c0-10.61,7.07-14.58,7.07-14.58
	c-1.77,8.4,3.54,10.38,3.54,10.38C10.61,10.5,19.44,1.77,19.44,1.77s8.84,8.73,7.07,19.39c0,0,5.3-3.59,3.54-10.19
	C30.05,10.97,37.12,14.92,37.12,25.52"/>
<g>
	<path class="st2" d="M33.59,40.55H5.3c-0.63,0-1.22-0.34-1.53-0.89C3.61,39.39,0,32.98,0,25.52C0,14.01,7.65,9.58,7.97,9.4
		c0.61-0.34,1.35-0.3,1.91,0.12c0.56,0.41,0.83,1.11,0.68,1.79c-0.45,2.13-0.38,3.74-0.09,4.95c0.94-8.94,7.39-15.42,7.72-15.74
		c0.69-0.68,1.79-0.68,2.48,0c0.32,0.31,6.54,6.56,7.66,15.14c0.34-1.17,0.44-2.58,0-4.22c-0.18-0.69,0.06-1.42,0.62-1.85
		c0.56-0.44,1.33-0.49,1.95-0.15c0.33,0.18,7.98,4.59,7.98,16.1c0,7.45-3.61,13.86-3.77,14.13C34.81,40.21,34.22,40.55,33.59,40.55z
		 M6.38,37.01h26.12c0.91-1.88,2.85-6.49,2.85-11.49c0-4.99-1.69-8.32-3.3-10.37c-0.55,3.74-2.95,6.38-4.55,7.47
		c-0.58,0.4-1.35,0.4-1.95,0.02c-0.59-0.38-0.9-1.08-0.79-1.78c1.21-7.28-3.1-13.68-5.32-16.42c-2.22,2.76-6.53,9.22-5.33,16.6
		c0.1,0.62-0.14,1.25-0.62,1.65c-0.49,0.4-1.15,0.51-1.74,0.29c-1.8-0.68-4.6-3.06-4.99-7.75c-1.59,2.06-3.23,5.37-3.23,10.29
		C3.54,30.52,5.48,35.13,6.38,37.01z"/>
</g>
<path class="st3" d="M24.75,33.48v3.54H14.14v-3.54c0,0,0-8.84,5.3-14.14C24.75,24.64,24.75,33.48,24.75,33.48"/>
<g>
	<path class="st2" d="M19.47,107.72h-0.08c-1.51-0.01-4.59-0.84-5.22-3.84l-0.03-0.2l-3.71-40.16h18.02l-3.75,40.14
		C24.03,106.86,21.1,107.72,19.47,107.72z M17.66,103.23c0.26,0.89,1.77,0.95,1.82,0.95c0.35,0,1.47-0.09,1.76-1.17l3.34-35.95
		H14.31L17.66,103.23z"/>
</g>
<path class="st4" d="M37.12,37.89c0,34.47-17.68,32.7-17.68,32.7S1.77,72.36,1.77,38.12c0,0,0-2.87,3.54-2.87h14.14h14.14
	C37.12,35.24,37.12,37.89,37.12,37.89"/>
<g>
	<path class="st2" d="M33.59,33.48H5.3c-3.89,0-5.3,2.77-5.3,4.63C0,51.7,2.72,61.47,8.08,67.22c4.37,4.65,9.1,5.16,10.92,5.16
		c0.19,0,0.34,0,0.44-0.02c0.11,0.02,0.25,0.02,0.42,0.02c3.18,0,19.02-1.66,19.02-34.49C38.89,36.13,37.47,33.48,33.59,33.48z
		 M3.54,38.11c0-0.25,0.12-1.1,1.77-1.1h28.28c1.1,0,1.71,0.34,1.77,0.88c0,0.9-0.02,1.78-0.03,2.65H3.57
		C3.55,39.75,3.54,38.94,3.54,38.11z M19.87,68.85c-0.14,0-0.23,0-0.25-0.02h-0.33c-0.25,0.03-4.61,0.25-8.63-4.03
		c-3.89-4.15-6.24-11.24-6.91-20.72h31.39C33.46,67.56,22.27,68.85,19.87,68.85z"/>
</g>
</svg>
