<?xml version="1.0" encoding="utf-8"?>
<!-- Generator: Adobe Illustrator 24.0.0, SVG Export Plug-In . SVG Version: 6.00 Build 0)  -->
<svg version="1.1" id="Capa_1" xmlns="http://www.w3.org/2000/svg" xmlns:xlink="http://www.w3.org/1999/xlink" x="0px" y="0px"
	 viewBox="0 0 112.04 107.72" style="enable-background:new 0 0 112.04 107.72;" xml:space="preserve">
<style type="text/css">
	.st0{fill:#7DBCB2;}
	.st1{fill:#26211D;}
</style>
<g>
	<path class="st0" d="M64.64,105.56c-1.71,0-3.33-0.68-4.56-1.9c-1.23-1.21-1.91-2.84-1.91-4.56s0.68-3.35,1.92-4.57
		c6.54-6.54,5.58-15.43,4.29-16.73c-3.53-3.51-8.62-5.38-11.3-6.17c-3.25,3.75-6.53,7.28-9.73,10.48
		c-9.61,9.63-32.11,18.6-32.33,18.68c-0.81,0.31-1.61,0.45-2.39,0.45c-2.64,0-4.99-1.59-6-4.05C1.98,95.59,2,93.84,2.68,92.25
		c0.68-1.59,1.95-2.83,3.55-3.47c9.58-3.93,22.59-10.4,27.99-15.79C43.67,63.53,53,51.62,59.51,42.77
		c-5.4-5.22-10.55-7.87-15.32-7.87c-4.63,0-7.91,2.58-9.45,4.13c-1.21,1.23-2.84,1.91-4.56,1.91s-3.35-0.68-4.57-1.92
		c-1.22-1.2-1.9-2.83-1.9-4.55s0.68-3.35,1.92-4.57c1.84-1.85,8.66-7.93,18.74-7.93c6.72,0,13.44,2.67,20.05,7.95
		c-1.25-2.6-1.92-5.46-1.92-8.38c0-10.69,8.7-19.39,19.39-19.39s19.39,8.7,19.39,19.39s-8.7,19.39-19.39,19.39
		c-1.62,0-3.22-0.2-4.77-0.6c-0.36,0.53-0.79,1.15-1.26,1.84c2.69,4.55,6.15,8.05,7.47,8.05c7.52-3.77,15.47-11.64,15.55-11.72
		c1.23-1.22,2.85-1.88,4.56-1.88c1.73,0,3.35,0.68,4.57,1.91c1.22,1.2,1.9,2.83,1.9,4.55c0,1.73-0.68,3.35-1.92,4.57
		c-0.03,0.04-9.21,9.3-18.91,14.14c-1.87,0.95-3.84,1.43-5.83,1.43c-6.38,0-11.71-4.92-15.46-9.88c-1.98,2.65-3.97,5.23-5.94,7.71
		c3.68,1.57,8.06,4,11.68,7.62c3.01,3,4.73,7.89,4.74,13.42c0,7.84-3.38,15.9-9.05,21.55C67.97,104.89,66.35,105.56,64.64,105.56"/>
	<path class="st1" d="M81.88,4.31c9.5,0,17.23,7.73,17.23,17.23s-7.73,17.23-17.23,17.23c-1.98,0-3.9-0.35-5.67-0.97
		c-0.6,0.91-1.59,2.35-2.91,4.24c2.26,4.19,6.86,10.32,10.01,10.32c0.34,0,0.66-0.07,0.96-0.22c7.86-3.94,16.03-12.04,16.11-12.13
		c0.84-0.83,1.94-1.25,3.04-1.25s2.2,0.42,3.04,1.27c1.7,1.68,1.7,4.4,0,6.08c-0.37,0.39-9.2,9.18-18.36,13.74
		c-1.66,0.84-3.29,1.21-4.87,1.21c-6.68,0-12.24-6.59-15.43-11.4c-2.71,3.7-5.92,7.93-9.5,12.32c4.03,1.42,9.41,3.94,13.68,8.21
		c6.27,6.25,5.75,21.89-4.31,31.93c-0.84,0.84-1.94,1.27-3.04,1.27c-1.1,0-2.2-0.43-3.04-1.27c-1.7-1.68-1.7-4.4,0-6.08
		c7.24-7.24,6.53-17.54,4.31-19.78c-4.39-4.37-10.79-6.4-13.57-7.09c-3.36,3.92-6.92,7.8-10.51,11.4
		c-9.14,9.16-30.68,17.84-31.6,18.2c-0.52,0.19-1.06,0.3-1.59,0.3c-1.7,0-3.32-1.04-4.01-2.71c-0.88-2.2,0.19-4.72,2.41-5.6
		c0.19-0.09,20.81-8.38,28.72-16.26c10.23-10.25,20.21-23.2,26.67-32.08c-0.3-0.15-0.56-0.37-0.82-0.62
		c-6.9-6.89-12.76-9.07-17.42-9.07c-5.31,0-9.05,2.83-10.98,4.76c-0.84,0.85-1.94,1.28-3.04,1.28s-2.2-0.43-3.04-1.28
		c-1.7-1.68-1.7-4.4,0-6.08c1.76-1.77,8.04-7.31,17.22-7.31c6.43,0,14.29,2.72,23.02,11.34c0.71-1.03,1.27-1.87,1.66-2.43
		c-2.71-3.06-4.39-7.09-4.39-11.48C64.64,12.04,72.37,4.31,81.88,4.31 M81.88,0C70,0,60.33,9.66,60.33,21.54
		c0,1.03,0.08,2.06,0.22,3.07c-5.34-3.19-10.75-4.8-16.2-4.8c-10.91,0-18.28,6.57-20.28,8.59c-1.62,1.6-2.53,3.77-2.53,6.07
		c0,2.31,0.91,4.47,2.56,6.1c1.59,1.61,3.76,2.52,6.06,2.52s4.47-0.91,6.1-2.56c1.58-1.58,4.25-3.48,7.91-3.48
		c3.8,0,7.98,2.01,12.45,5.98c-6.39,8.59-15.11,19.6-23.93,28.43c-5.17,5.15-17.88,11.46-27.2,15.28l-0.06,0.02
		C3.3,87.63,1.61,89.27,0.7,91.4c-0.91,2.12-0.94,4.46-0.08,6.6c1.35,3.3,4.49,5.42,8.01,5.42c1.04,0,2.09-0.19,3.11-0.57
		c1.01-0.4,23.22-9.25,33.14-19.2c2.93-2.93,5.92-6.13,8.9-9.52c2.55,0.86,6.23,2.46,8.92,5.06c0.8,1.65,1.04,8.65-4.15,13.84
		c-1.63,1.61-2.54,3.78-2.54,6.08c0,2.31,0.91,4.47,2.56,6.1c1.61,1.61,3.77,2.51,6.07,2.51s4.45-0.9,6.08-2.53
		c6.15-6.14,9.68-14.55,9.68-23.07c0-6.19-1.91-11.5-5.37-14.95c-3.04-3.04-6.56-5.28-9.82-6.9c0.87-1.12,1.75-2.25,2.62-3.4
		c4.84,5.6,10.1,8.53,15.4,8.53c2.33,0,4.63-0.56,6.82-1.67c9.44-4.71,18.37-13.46,19.44-14.52c1.65-1.63,2.56-3.8,2.56-6.1
		c0-2.31-0.91-4.47-2.56-6.1c-1.59-1.61-3.75-2.51-6.07-2.51c-2.28,0-4.43,0.89-6.07,2.49c-0.09,0.09-7.21,7.13-14.14,10.88
		c-1.01-0.7-2.72-2.54-4.38-4.97c1,0.14,2.02,0.22,3.04,0.22c11.88,0,21.54-9.66,21.54-21.54S93.75,0,81.88,0"/>
</g>
</svg>
