<?xml version="1.0" encoding="utf-8"?>
<!-- Generator: Adobe Illustrator 24.0.0, SVG Export Plug-In . SVG Version: 6.00 Build 0)  -->
<svg version="1.1" id="Layer_1" xmlns="http://www.w3.org/2000/svg" xmlns:xlink="http://www.w3.org/1999/xlink" x="0px" y="0px"
	 viewBox="0 0 207.74 185.46" style="enable-background:new 0 0 207.74 185.46;" xml:space="preserve">
<style type="text/css">
	.st0{fill:#85CDFE;stroke:#26211D;stroke-width:2;stroke-miterlimit:10;}
	.st1{fill:#250008;stroke:#26211D;stroke-width:2;stroke-miterlimit:10;}
	.st2{fill:#E0B465;stroke:#26211D;stroke-width:2;stroke-miterlimit:10;}
	.st3{fill:#FFFFFF;stroke:#26211D;stroke-width:2;stroke-miterlimit:10;}
	.st4{fill:#A3A3A3;stroke:#26211D;stroke-width:2;stroke-miterlimit:10;}
	.st5{fill:#7DBCB2;stroke:#26211D;stroke-width:2;stroke-miterlimit:10;}
	.st6{fill:#A894AD;stroke:#26211D;stroke-width:2;stroke-miterlimit:10;}
</style>
<g>
	<g>
		<g>
			<path class="st0" d="M200.89,140.56H6.85c-2.49,0-4.5-2.02-4.5-4.5V6.85c0-2.49,2.02-4.5,4.5-4.5h194.03c2.49,0,4.5,2.02,4.5,4.5
				v129.21C205.39,138.55,203.37,140.56,200.89,140.56z"/>
		</g>
		<g>
			<path class="st1" d="M200.89,141.91H6.85c-3.23,0-5.85-2.63-5.85-5.85V6.85C1,3.63,3.63,1,6.85,1h194.03
				c3.23,0,5.85,2.63,5.85,5.85v129.21C206.74,139.29,204.11,141.91,200.89,141.91z M6.85,3.7C5.12,3.7,3.7,5.12,3.7,6.85v129.21
				c0,1.74,1.41,3.15,3.15,3.15h194.03c1.74,0,3.15-1.41,3.15-3.15V6.85c0-1.74-1.41-3.15-3.15-3.15H6.85z"/>
		</g>
	</g>
	<g>
		<g>
			<rect x="12.71" y="16.76" class="st2" width="13.96" height="109.4"/>
		</g>
		<g>
			<path class="st1" d="M26.66,127.51H12.71c-0.75,0-1.35-0.6-1.35-1.35V16.76c0-0.75,0.6-1.35,1.35-1.35h13.96
				c0.75,0,1.35,0.6,1.35,1.35v109.4C28.01,126.9,27.41,127.51,26.66,127.51z M14.06,124.8h11.25V18.11H14.06V124.8z"/>
		</g>
	</g>
	<g>
		<polygon class="st3" points="151.3,17.06 151.3,60.84 68.44,60.84 68.44,82.12 45.64,82.12 45.64,17.06 		"/>
		<path class="st1" d="M68.44,83.47h-22.8c-0.75,0-1.35-0.6-1.35-1.35V17.06c0-0.75,0.6-1.35,1.35-1.35H151.3
			c0.75,0,1.35,0.6,1.35,1.35v43.78c0,0.75-0.6,1.35-1.35,1.35h-81.5v19.93C69.79,82.86,69.19,83.47,68.44,83.47z M46.99,80.77h20.1
			V60.84c0-0.75,0.6-1.35,1.35-1.35h81.5V18.41H46.99V80.77z"/>
	</g>
	<g>
		<g>
			<rect x="45.64" y="17.06" class="st4" width="105.65" height="10.95"/>
		</g>
		<g>
			<path class="st1" d="M151.3,29.35H45.64c-0.75,0-1.35-0.6-1.35-1.35V17.06c0-0.75,0.6-1.35,1.35-1.35H151.3
				c0.75,0,1.35,0.6,1.35,1.35V28C152.65,28.75,152.04,29.35,151.3,29.35z M47,26.65h102.95v-8.24H47V26.65z"/>
		</g>
	</g>
	<g>
		<rect x="68.44" y="71.78" class="st3" width="105.66" height="54.11"/>
		<path class="st1" d="M174.1,127.25H68.44c-0.75,0-1.35-0.6-1.35-1.35V71.78c0-0.75,0.6-1.35,1.35-1.35H174.1
			c0.75,0,1.35,0.6,1.35,1.35v54.11C175.45,126.64,174.85,127.25,174.1,127.25z M69.79,124.55h102.96V73.14H69.79V124.55z"/>
	</g>
	<g>
		<g>
			<rect x="68.44" y="60.84" class="st5" width="105.66" height="10.95"/>
		</g>
		<g>
			<path class="st1" d="M174.1,73.14H68.44c-0.75,0-1.35-0.6-1.35-1.35V60.84c0-0.75,0.6-1.35,1.35-1.35H174.1
				c0.75,0,1.35,0.6,1.35,1.35v10.95C175.45,72.53,174.85,73.14,174.1,73.14z M69.79,70.43h102.96v-8.24H69.79V70.43z"/>
		</g>
	</g>
	<g>
		<g>
			<rect x="95.99" y="140.56" class="st3" width="15.76" height="28.36"/>
		</g>
		<g>
			<path class="st1" d="M111.75,170.27H95.99c-0.75,0-1.35-0.6-1.35-1.35v-28.36c0-0.75,0.6-1.35,1.35-1.35h15.76
				c0.75,0,1.35,0.6,1.35,1.35v28.36C113.1,169.67,112.49,170.27,111.75,170.27z M97.34,167.57h13.06v-25.66H97.34V167.57z"/>
		</g>
	</g>
	<g>
		<g>
			<path class="st3" d="M145.93,183.1H61.81c-3.92,0-7.09-3.17-7.09-7.09v0c0-3.92,3.17-7.09,7.09-7.09h84.11
				c3.92,0,7.09,3.17,7.09,7.09v0C153.02,179.93,149.84,183.1,145.93,183.1z"/>
		</g>
		<g>
			<path class="st1" d="M145.93,184.46H61.81c-4.65,0-8.44-3.79-8.44-8.44s3.79-8.44,8.44-8.44h84.11c4.65,0,8.44,3.79,8.44,8.44
				S150.58,184.46,145.93,184.46z M61.81,170.27c-3.17,0-5.74,2.57-5.74,5.74s2.58,5.74,5.74,5.74h84.11c3.17,0,5.74-2.57,5.74-5.74
				s-2.57-5.74-5.74-5.74H61.81z"/>
		</g>
	</g>
	<g>
		<rect x="162.85" y="17.06" class="st3" width="32.53" height="32.53"/>
		<path class="st1" d="M195.38,50.94h-32.53c-0.75,0-1.35-0.6-1.35-1.35V17.06c0-0.75,0.6-1.35,1.35-1.35h32.53
			c0.75,0,1.35,0.6,1.35,1.35v32.53C196.73,50.33,196.12,50.94,195.38,50.94z M164.2,48.24h29.83V18.41H164.2V48.24z"/>
	</g>
	<g>
		<g>
			<rect x="162.85" y="17.06" class="st6" width="32.53" height="10.95"/>
		</g>
		<g>
			<path class="st1" d="M195.38,29.35h-32.53c-0.75,0-1.35-0.6-1.35-1.35V17.06c0-0.75,0.6-1.35,1.35-1.35h32.53
				c0.75,0,1.35,0.6,1.35,1.35V28C196.73,28.75,196.12,29.35,195.38,29.35z M164.2,26.65h29.83v-8.24H164.2V26.65z"/>
		</g>
	</g>
</g>
</svg>
