<?xml version="1.0" encoding="utf-8"?>
<!-- Generator: Adobe Illustrator 24.0.0, SVG Export Plug-In . SVG Version: 6.00 Build 0)  -->
<svg version="1.1" id="Layer_1" xmlns="http://www.w3.org/2000/svg" xmlns:xlink="http://www.w3.org/1999/xlink" x="0px" y="0px"
	 viewBox="0 0 213.54 206.49" style="enable-background:new 0 0 213.54 206.49;" xml:space="preserve">
<style type="text/css">
	.st0{fill:#7DBCB2;stroke:#26211D;stroke-width:2;stroke-linecap:round;stroke-linejoin:round;stroke-miterlimit:10;}
	.st1{fill:#26211D;stroke:#26211D;stroke-width:2;stroke-linecap:round;stroke-linejoin:round;stroke-miterlimit:10;}
	.st2{fill:#250008;stroke:#26211D;stroke-width:2;stroke-linecap:round;stroke-linejoin:round;stroke-miterlimit:10;}
	.st3{fill:#F2F2F2;stroke:#26211D;stroke-width:2;stroke-linecap:round;stroke-linejoin:round;stroke-miterlimit:10;}
</style>
<g>
	<g>
		<g>
			<polygon class="st0" points="137,168.21 84.35,149.43 106.54,103.89 112.17,92.33 117.94,109.97 			"/>
			<path class="st1" d="M137,169.56c-0.15,0-0.31-0.03-0.45-0.08L83.9,150.7c-0.36-0.13-0.65-0.41-0.8-0.76
				c-0.15-0.36-0.13-0.76,0.04-1.1l27.82-57.1c0.24-0.5,0.75-0.8,1.31-0.76c0.55,0.04,1.02,0.4,1.19,0.93l24.82,75.88
				c0.16,0.49,0.03,1.03-0.34,1.39C137.68,169.43,137.34,169.56,137,169.56z M86.23,148.67l48.63,17.35l-22.93-70.1L86.23,148.67z"
				/>
		</g>
		<g>
			<polygon class="st0" points="137,168.21 27.17,204.14 2.35,128.25 58.55,157.88 75.8,166.96 84.35,149.43 			"/>
			<path class="st2" d="M27.17,205.49c-0.21,0-0.42-0.05-0.61-0.15c-0.32-0.16-0.56-0.44-0.67-0.78L1.07,128.67
				c-0.17-0.52-0.01-1.1,0.41-1.45c0.42-0.35,1.01-0.42,1.5-0.16l72.22,38.06l7.93-16.28c0.3-0.62,1.02-0.91,1.67-0.68l52.65,18.78
				c0.54,0.19,0.9,0.71,0.9,1.29c-0.01,0.58-0.38,1.09-0.93,1.27L27.59,205.42C27.46,205.47,27.32,205.49,27.17,205.49z M4.67,131
				l23.37,71.43l104.78-34.28l-47.79-17.05l-8.02,16.44c-0.16,0.33-0.45,0.58-0.79,0.69c-0.35,0.11-0.73,0.08-1.05-0.09L4.67,131z"
				/>
		</g>
		<g>
			<polygon class="st0" points="137,168.21 27.17,204.14 58.55,157.88 75.8,166.96 84.35,149.43 			"/>
			<path class="st1" d="M27.17,205.49c-0.42,0-0.82-0.19-1.08-0.54c-0.35-0.46-0.36-1.09-0.04-1.57l31.38-46.26
				c0.39-0.57,1.14-0.76,1.75-0.44l16.02,8.44l7.93-16.28c0.3-0.62,1.02-0.91,1.67-0.68l52.65,18.78c0.54,0.19,0.9,0.71,0.9,1.29
				c-0.01,0.58-0.38,1.09-0.93,1.27L27.59,205.42C27.46,205.47,27.32,205.49,27.17,205.49z M58.99,159.63l-28.48,41.99l102.31-33.47
				l-47.79-17.05l-8.02,16.44c-0.16,0.33-0.45,0.58-0.79,0.69c-0.35,0.11-0.73,0.08-1.05-0.09L58.99,159.63z"/>
		</g>
		<g>
			<polygon class="st0" points="112.17,92.33 106.54,103.89 84.35,149.43 75.8,166.96 58.55,157.88 2.35,128.25 95.24,97.87 			"/>
			<path class="st1" d="M75.8,168.31c-0.22,0-0.43-0.05-0.63-0.16L1.72,129.45c-0.48-0.25-0.76-0.77-0.72-1.31
				c0.05-0.54,0.41-1,0.93-1.17l109.82-35.93c0.52-0.17,1.08-0.01,1.44,0.4c0.36,0.41,0.43,0.99,0.2,1.48l-36.37,74.63
				c-0.16,0.33-0.45,0.58-0.79,0.69C76.09,168.29,75.95,168.31,75.8,168.31z M5.8,128.55l69.4,36.57l34.36-70.51L5.8,128.55z"/>
		</g>
	</g>
	<g>
		<g>
			<polygon class="st3" points="211.19,61.41 170.39,137.93 117.94,109.97 112.17,92.33 95.24,97.87 59.62,78.88 100.43,2.35 
				119.49,68.67 125.34,89.03 145.5,82.55 			"/>
			<path class="st1" d="M170.39,139.28c-0.22,0-0.44-0.05-0.64-0.16l-52.45-27.97c-0.31-0.16-0.54-0.44-0.65-0.77l-5.35-16.36
				l-15.64,5.12c-0.35,0.11-0.73,0.08-1.06-0.09L58.99,80.07c-0.32-0.17-0.55-0.46-0.66-0.8c-0.1-0.34-0.07-0.71,0.1-1.03
				L99.24,1.72c0.26-0.49,0.79-0.76,1.33-0.71c0.55,0.06,1,0.44,1.16,0.97l24.53,85.34l84.52-27.2c0.52-0.17,1.1,0,1.45,0.42
				c0.35,0.42,0.41,1.02,0.16,1.5l-40.8,76.52c-0.17,0.32-0.46,0.55-0.8,0.66C170.66,139.26,170.52,139.28,170.39,139.28z
				 M119.06,109.03l50.78,27.08l38.59-72.39l-82.67,26.6c-0.35,0.11-0.73,0.08-1.05-0.09c-0.32-0.17-0.56-0.47-0.66-0.82
				L100.05,5.93l-38.6,72.39L95.37,96.4l16.38-5.36c0.71-0.23,1.47,0.15,1.7,0.86L119.06,109.03z"/>
		</g>
		<g>
			<polygon class="st3" points="170.39,137.93 117.94,109.97 112.17,92.33 95.24,97.87 59.62,78.88 119.49,68.67 125.34,89.03 
				145.5,82.55 			"/>
			<path class="st1" d="M170.39,139.28c-0.22,0-0.43-0.05-0.63-0.16l-52.45-27.97c-0.31-0.16-0.54-0.44-0.65-0.77l-5.35-16.36
				l-15.64,5.12c-0.35,0.11-0.73,0.08-1.06-0.09L58.99,80.07c-0.51-0.27-0.79-0.84-0.7-1.41c0.09-0.57,0.54-1.02,1.11-1.12
				l59.87-10.2c0.68-0.12,1.33,0.3,1.52,0.96l5.47,19.02l18.83-6.06c0.65-0.21,1.36,0.1,1.65,0.73l24.89,55.38
				c0.24,0.53,0.11,1.15-0.31,1.54C171.06,139.16,170.73,139.28,170.39,139.28z M119.06,109.03l48.48,25.85l-22.77-50.68
				l-19.01,6.11c-0.35,0.11-0.73,0.08-1.05-0.09c-0.32-0.17-0.56-0.47-0.66-0.82l-5.52-19.2l-54.78,9.33L95.37,96.4l16.38-5.36
				c0.71-0.23,1.47,0.15,1.7,0.86L119.06,109.03z"/>
		</g>
		<g>
			<polygon class="st3" points="211.19,61.41 145.51,82.55 125.34,89.03 119.49,68.68 100.43,2.35 			"/>
			<path class="st1" d="M125.34,90.38c-0.22,0-0.44-0.05-0.64-0.16c-0.32-0.17-0.56-0.47-0.66-0.82L99.13,2.72
				c-0.15-0.52,0.03-1.08,0.45-1.42c0.42-0.34,1.01-0.4,1.49-0.14l110.76,59.06c0.48,0.25,0.76,0.77,0.71,1.31
				c-0.05,0.54-0.42,1-0.93,1.17l-85.85,27.62C125.62,90.36,125.48,90.38,125.34,90.38z M102.61,5.04l23.65,82.28l81.49-26.22
				L102.61,5.04z"/>
		</g>
	</g>
</g>
</svg>
